<svg width="267" height="320" viewBox="0 0 267 320" fill="none" xmlns="http://www.w3.org/2000/svg">
<g clip-path="url(#clip0_7_3)">
<path d="M190 117H0V157H190V117Z" fill="#6495ED"/>
<path d="M153 117V1L114 1V117H153Z" fill="#6495ED"/>
<path d="M153 320V193H113V320H153Z" fill="#6495ED"/>
<path d="M0 114.844L114 1L114.5 43.5L0 157.844V114.844Z" fill="#6495ED"/>
<path d="M153 157H113V193H153V157Z" fill="#6495ED"/>
<path d="M190 117C205.229 117 220.116 121.457 232.779 129.808C245.441 138.159 255.311 150.029 261.139 163.916C266.967 177.803 268.492 193.084 265.52 207.827C262.549 222.569 255.216 236.111 244.447 246.74C233.679 257.369 219.958 264.607 205.022 267.54C190.085 270.472 174.603 268.967 160.533 263.215C146.463 257.463 134.438 247.721 125.977 235.223C117.516 222.725 113 208.031 113 193H153C153 200.122 155.654 207.085 159.663 213.007C163.672 218.929 169.371 223.545 176.038 226.27C182.704 228.996 190.04 229.709 197.118 228.32C204.195 226.93 210.697 223.5 215.799 218.464C220.902 213.428 224.377 207.011 225.784 200.026C227.192 193.04 226.47 185.799 223.708 179.219C220.947 172.639 216.27 167.014 210.27 163.057C204.27 159.1 196.716 157 189.5 157L190 117Z" fill="#6495ED"/>
</g>
<defs>
<clipPath id="clip0_7_3">
<rect width="267" height="320" fill="white"/>
</clipPath>
</defs>
</svg>
